<?xml version="1.0" encoding="utf-8"?>
<!-- Generator: Adobe Illustrator 23.0.3, SVG Export Plug-In . SVG Version: 6.00 Build 0)  -->
<svg version="1.1" id="Layer_1" xmlns="http://www.w3.org/2000/svg" x="0px" y="0px"
     viewBox="0 0 277 78" style="enable-background:new 0 0 277 78;" xml:space="preserve">
<style type="text/css">
	.st0{fill:#686868;}
	.st1{fill:url(#SVGID_1_);}
	.st2{fill:url(#SVGID_2_);}
	.st3{fill:url(#SVGID_3_);}
</style>
<g>
	<path class="st0" d="M42.04,76.16l-4.18-6.74c-2.84,0.68-5.49,1.02-7.93,1.02c-8.3,0-15.34-2.93-21.11-8.79
		C3.04,55.8,0.15,48.71,0.15,40.41c0-8.36,2.89-15.48,8.66-21.37c5.77-5.89,12.81-8.83,21.11-8.83c8.36,0,15.43,2.94,21.2,8.83
		c5.77,5.89,8.66,13.01,8.66,21.37c0,5.01-1.12,9.67-3.37,13.99c-2.25,4.32-5.33,7.88-9.26,10.66l4.01,6.48
		c0.68,1.14,0.75,2.33,0.21,3.58c-0.54,1.25-1.46,2.19-2.77,2.82C46.05,79.31,43.86,78.71,42.04,76.16z M37.26,48.77l3.5,5.8
		c4.38-3.64,6.57-8.36,6.57-14.16c0-4.95-1.66-9.2-4.99-12.75c-3.33-3.55-7.46-5.33-12.41-5.33c-4.95,0-9.07,1.76-12.37,5.29
		c-3.3,3.53-4.95,7.79-4.95,12.8c0,4.95,1.65,9.17,4.95,12.67c3.3,3.5,7.42,5.25,12.37,5.25h1.19l-2.99-4.95
		c-0.63-1.19-0.68-2.4-0.17-3.63c0.51-1.22,1.42-2.15,2.73-2.77c1.19-0.63,2.42-0.77,3.67-0.43C35.61,46.89,36.58,47.63,37.26,48.77
		z"/>
	<path class="st0" d="M113.35,29.87c-0.11,4.03-1.31,7.65-3.58,10.85c-2.28,3.21-5.49,5.43-9.64,6.68l9.55,13.73
		c0.85,1.31,1.05,2.77,0.6,4.39c-0.46,1.62-1.42,2.86-2.9,3.71c-1.36,0.8-2.86,1.02-4.48,0.68c-1.62-0.34-2.83-1.14-3.63-2.39
		l-11.26-18.6H82.3V64.3c0,1.59-0.61,2.96-1.83,4.09c-1.22,1.14-2.69,1.71-4.39,1.71c-1.65,0-3.1-0.58-4.35-1.75
		c-1.25-1.16-1.88-2.51-1.88-4.05V17.37c0.06-1.82,0.61-3.34,1.66-4.56c1.05-1.22,2.49-1.83,4.31-1.83h18
		c6.2,0,10.98,1.84,14.33,5.53C111.51,20.2,113.24,24.65,113.35,29.87z M93.82,21.9H82.3v16.55h11.18c2.27,0,4.08-0.85,5.42-2.56
		c1.34-1.71,2-3.61,2-5.72c0-2.05-0.64-3.94-1.92-5.67C97.7,22.77,95.98,21.9,93.82,21.9z"/>
</g>
<g>
	<g>
		<linearGradient id="SVGID_1_" gradientUnits="userSpaceOnUse" x1="121.5239" y1="40.6055" x2="275.7461" y2="40.6055">
			<stop  offset="0" style="stop-color:#35AFED"/>
			<stop  offset="0.2481" style="stop-color:#41B8F8"/>
			<stop  offset="0.5011" style="stop-color:#47BDFE"/>
			<stop  offset="0.9927" style="stop-color:#35AFED"/>
		</linearGradient>
		<path class="st1" d="M177.64,46.1v11.27c0,1.5-0.15,2.69-0.44,3.59c-0.29,0.9-0.84,1.71-1.63,2.43c-0.79,0.72-1.8,1.42-3.03,2.09
			c-3.56,1.92-6.98,3.33-10.27,4.21c-3.29,0.88-6.87,1.32-10.75,1.32c-4.52,0-8.64-0.7-12.35-2.09c-3.72-1.39-6.89-3.41-9.51-6.06
			c-2.62-2.65-4.63-5.86-6.04-9.63s-2.11-7.98-2.11-12.63c0-4.57,0.68-8.76,2.05-12.55c1.36-3.8,3.37-7.02,6.02-9.67
			c2.65-2.65,5.87-4.67,9.67-6.08c3.8-1.4,8.1-2.11,12.92-2.11c3.96,0,7.46,0.53,10.51,1.58c3.05,1.06,5.52,2.39,7.42,3.99
			c1.9,1.6,3.33,3.3,4.29,5.09c0.96,1.79,1.44,3.38,1.44,4.77c0,1.5-0.55,2.77-1.66,3.83c-1.11,1.06-2.44,1.58-3.99,1.58
			c-0.86,0-1.68-0.2-2.47-0.6c-0.79-0.4-1.45-0.96-1.99-1.68c-1.47-2.3-2.71-4.04-3.73-5.21s-2.39-2.17-4.11-2.97s-3.92-1.2-6.6-1.2
			c-2.75,0-5.21,0.47-7.38,1.42c-2.17,0.95-4.02,2.33-5.56,4.13c-1.54,1.8-2.71,4.02-3.53,6.64c-0.82,2.62-1.22,5.52-1.22,8.7
			c0,6.9,1.58,12.21,4.75,15.92c3.17,3.72,7.59,5.58,13.26,5.58c2.75,0,5.34-0.36,7.76-1.08c2.42-0.72,4.87-1.75,7.36-3.09v-9.55
			h-9.23c-2.22,0-3.9-0.33-5.03-1s-1.71-1.81-1.71-3.41c0-1.31,0.47-2.39,1.42-3.25c0.95-0.86,2.24-1.28,3.87-1.28h13.52
			c1.66,0,3.06,0.15,4.21,0.44c1.15,0.29,2.08,0.95,2.79,1.97S177.64,44.07,177.64,46.1z"/>
		<linearGradient id="SVGID_2_" gradientUnits="userSpaceOnUse" x1="121.5239" y1="40.6055" x2="275.7461" y2="40.6055">
			<stop  offset="0" style="stop-color:#35AFED"/>
			<stop  offset="0.2481" style="stop-color:#41B8F8"/>
			<stop  offset="0.5011" style="stop-color:#47BDFE"/>
			<stop  offset="0.9927" style="stop-color:#35AFED"/>
		</linearGradient>
		<path class="st2" d="M218.79,51.44h-21.42c0.03,2.49,0.53,4.68,1.5,6.58c0.98,1.9,2.27,3.33,3.89,4.29
			c1.62,0.96,3.4,1.44,5.35,1.44c1.31,0,2.51-0.15,3.59-0.46c1.08-0.31,2.13-0.79,3.15-1.44c1.02-0.66,1.95-1.36,2.81-2.11
			c0.86-0.75,1.97-1.76,3.33-3.05c0.56-0.48,1.36-0.72,2.41-0.72c1.12,0,2.03,0.31,2.73,0.92c0.7,0.62,1.04,1.48,1.04,2.61
			c0,0.99-0.39,2.15-1.16,3.47c-0.78,1.32-1.95,2.59-3.51,3.81c-1.56,1.22-3.53,2.23-5.9,3.03c-2.37,0.8-5.09,1.2-8.16,1.2
			c-7.03,0-12.5-2.01-16.41-6.02s-5.86-9.45-5.86-16.32c0-3.24,0.48-6.24,1.44-9s2.37-5.14,4.21-7.12c1.84-1.98,4.12-3.5,6.82-4.55
			c2.7-1.06,5.7-1.58,8.98-1.58c4.28,0,7.95,0.9,11.01,2.71c3.06,1.8,5.35,4.14,6.88,7c1.52,2.86,2.29,5.78,2.29,8.74
			c0,2.75-0.79,4.54-2.37,5.35S221.65,51.44,218.79,51.44z M197.37,45.22h19.85c-0.27-3.74-1.28-6.54-3.03-8.4
			c-1.75-1.86-4.06-2.79-6.92-2.79c-2.73,0-4.97,0.94-6.72,2.83C198.81,38.74,197.75,41.53,197.37,45.22z"/>
		<linearGradient id="SVGID_3_" gradientUnits="userSpaceOnUse" x1="121.5239" y1="40.6055" x2="275.7461" y2="40.6055">
			<stop  offset="0" style="stop-color:#35AFED"/>
			<stop  offset="0.2481" style="stop-color:#41B8F8"/>
			<stop  offset="0.5011" style="stop-color:#47BDFE"/>
			<stop  offset="0.9927" style="stop-color:#35AFED"/>
		</linearGradient>
		<path class="st3" d="M246.99,32.54v1.32c1.93-2.54,4.03-4.41,6.32-5.6s4.91-1.79,7.88-1.79c2.89,0,5.47,0.63,7.74,1.89
			c2.27,1.26,3.97,3.04,5.09,5.33c0.72,1.34,1.19,2.78,1.4,4.33s0.32,3.53,0.32,5.94v20.38c0,2.19-0.5,3.85-1.5,4.97
			s-2.31,1.68-3.91,1.68c-1.63,0-2.96-0.58-3.97-1.72c-1.02-1.15-1.52-2.79-1.52-4.93V46.1c0-3.61-0.5-6.37-1.5-8.28
			c-1-1.91-3-2.87-6-2.87c-1.95,0-3.73,0.58-5.33,1.74s-2.78,2.76-3.53,4.79c-0.54,1.63-0.8,4.68-0.8,9.14v13.72
			c0,2.22-0.51,3.88-1.54,4.99s-2.36,1.67-3.99,1.67c-1.58,0-2.87-0.58-3.89-1.72s-1.52-2.79-1.52-4.93V32.7
			c0-2.09,0.45-3.64,1.36-4.67c0.91-1.03,2.15-1.54,3.73-1.54c0.96,0,1.83,0.23,2.61,0.68s1.4,1.14,1.87,2.05
			C246.75,30.12,246.99,31.23,246.99,32.54z"/>
	</g>
</g>
<g>
</g>
<g>
</g>
<g>
</g>
<g>
</g>
<g>
</g>
<g>
</g>
<g>
</g>
<g>
</g>
<g>
</g>
<g>
</g>
<g>
</g>
<g>
</g>
<g>
</g>
<g>
</g>
<g>
</g>
</svg>
